{"asset":{"version":"2.0","generator":"THREE.GLTFExporter r175"},"scenes":[{"name":"AuxScene","nodes":[14]}],"scene":0,"nodes":[{"matrix":[1,0,0,0,0,1,0,0,0,0,1,0,-50.18405060477258,0,0,1],"mesh":0},{"matrix":[1,0,0,0,0,1,0,0,0,0,1,0,-43.73646658835412,0,0,1],"mesh":1},{"matrix":[1,0,0,0,0,1,0,0,0,0,1,0,-37.25636645007134,0,0,1],"mesh":2},{"matrix":[1,0,0,0,0,1,0,0,0,0,1,0,-30.76026642837525,0,0,1],"mesh":3},{"matrix":[1,0,0,0,0,1,0,0,0,0,1,0,-24.26416640667916,0,0,1],"mesh":4},{"matrix":[1,0,0,0,0,1,0,0,0,0,1,0,-13.56806638498307,0,0,1],"mesh":5},{"matrix":[1,0,0,0,0,1,0,0,0,0,1,0,-2.7261363578796454,0,0,1],"mesh":6},{"matrix":[1,0,0,0,0,1,0,0,0,0,1,0,4.727649030089371,0,0,1],"mesh":7},{"matrix":[1,0,0,0,0,1,0,0,0,0,1,0,11.369579057192794,0,0,1],"mesh":8},{"matrix":[1,0,0,0,0,1,0,0,0,0,1,0,17.81716307361125,0,0,1],"mesh":9},{"matrix":[1,0,0,0,0,1,0,0,0,0,1,0,24.290481156992904,0,0,1],"mesh":10},{"matrix":[1,0,0,0,0,1,0,0,0,0,1,0,30.786581178688994,0,0,1],"mesh":11},{"matrix":[1,0,0,0,0,1,0,0,0,0,1,0,38.24036656665801,0,0,1],"mesh":12},{"matrix":[1,0,0,0,0,1,0,0,0,0,1,0,44.736466588354105,0,0,1],"mesh":13},{"children":[0,1,2,3,4,5,6,7,8,9,10,11,12,13]}],"bufferViews":[{"buffer":0,"byteOffset":0,"byteLength":8496,"target":34962,"byteStride":12},{"buffer":0,"byteOffset":8496,"byteLength":5664,"target":34962,"byteStride":8},{"buffer":0,"byteOffset":14160,"byteLength":8496,"target":34962,"byteStride":12},{"buffer":0,"byteOffset":22656,"byteLength":74016,"target":34962,"byteStride":12},{"buffer":0,"byteOffset":96672,"byteLength":49344,"target":34962,"byteStride":8},{"buffer":0,"byteOffset":146016,"byteLength":74016,"target":34962,"byteStride":12},{"buffer":0,"byteOffset":220032,"byteLength":8496,"target":34962,"byteStride":12},{"buffer":0,"byteOffset":228528,"byteLength":5664,"target":34962,"byteStride":8},{"buffer":0,"byteOffset":234192,"byteLength":8496,"target":34962,"byteStride":12},{"buffer":0,"byteOffset":242688,"byteLength":30960,"target":34962,"byteStride":12},{"buffer":0,"byteOffset":273648,"byteLength":20640,"target":34962,"byteStride":8},{"buffer":0,"byteOffset":294288,"byteLength":30960,"target":34962,"byteStride":12},{"buffer":0,"byteOffset":325248,"byteLength":30096,"target":34962,"byteStride":12},{"buffer":0,"byteOffset":355344,"byteLength":20064,"target":34962,"byteStride":8},{"buffer":0,"byteOffset":375408,"byteLength":30096,"target":34962,"byteStride":12},{"buffer":0,"byteOffset":405504,"byteLength":34560,"target":34962,"byteStride":12},{"buffer":0,"byteOffset":440064,"byteLength":23040,"target":34962,"byteStride":8},{"buffer":0,"byteOffset":463104,"byteLength":34560,"target":34962,"byteStride":12},{"buffer":0,"byteOffset":497664,"byteLength":5616,"target":34962,"byteStride":12},{"buffer":0,"byteOffset":503280,"byteLength":3744,"target":34962,"byteStride":8},{"buffer":0,"byteOffset":507024,"byteLength":5616,"target":34962,"byteStride":12},{"buffer":0,"byteOffset":512640,"byteLength":34560,"target":34962,"byteStride":12},{"buffer":0,"byteOffset":547200,"byteLength":23040,"target":34962,"byteStride":8},{"buffer":0,"byteOffset":570240,"byteLength":34560,"target":34962,"byteStride":12},{"buffer":0,"byteOffset":604800,"byteLength":8496,"target":34962,"byteStride":12},{"buffer":0,"byteOffset":613296,"byteLength":5664,"target":34962,"byteStride":8},{"buffer":0,"byteOffset":618960,"byteLength":8496,"target":34962,"byteStride":12},{"buffer":0,"byteOffset":627456,"byteLength":29520,"target":34962,"byteStride":12},{"buffer":0,"byteOffset":656976,"byteLength":19680,"target":34962,"byteStride":8},{"buffer":0,"byteOffset":676656,"byteLength":29520,"target":34962,"byteStride":12},{"buffer":0,"byteOffset":706176,"byteLength":30960,"target":34962,"byteStride":12},{"buffer":0,"byteOffset":737136,"byteLength":20640,"target":34962,"byteStride":8},{"buffer":0,"byteOffset":757776,"byteLength":30960,"target":34962,"byteStride":12},{"buffer":0,"byteOffset":788736,"byteLength":5616,"target":34962,"byteStride":12},{"buffer":0,"byteOffset":794352,"byteLength":3744,"target":34962,"byteStride":8},{"buffer":0,"byteOffset":798096,"byteLength":5616,"target":34962,"byteStride":12},{"buffer":0,"byteOffset":803712,"byteLength":8496,"target":34962,"byteStride":12},{"buffer":0,"byteOffset":812208,"byteLength":5664,"target":34962,"byteStride":8},{"buffer":0,"byteOffset":817872,"byteLength":8496,"target":34962,"byteStride":12},{"buffer":0,"byteOffset":826368,"byteLength":8496,"target":34962,"byteStride":12},{"buffer":0,"byteOffset":834864,"byteLength":5664,"target":34962,"byteStride":8},{"buffer":0,"byteOffset":840528,"byteLength":8496,"target":34962,"byteStride":12}],"buffers":[{"byteLength":849024,"uri":"data:application/octet-stream;base64,"}],"accessors":[{"bufferView":0,"componentType":5126,"count":708,"max":[5.8437418937683105,8.387999534606934,3.5],"min":[0.3962578773498535,-0.18799999356269836,-0.5],"type":"VEC3"},{"bufferView":1,"componentType":5126,"count":708,"max":[8.387999534606934,8.088000297546387],"min":[-0.18799999356269836,-2.5],"type":"VEC2"},{"bufferView":2,"componentType":5126,"count":708,"max":[1,1,1],"min":[-1,-1,-1],"type":"VEC3"},{"bufferView":3,"componentType":5126,"count":6168,"max":[5.860000133514404,8.501254081726074,3.5],"min":[0.3799999952316284,-0.3011961281299591,-0.5],"type":"VEC3"},{"bufferView":4,"componentType":5126,"count":6168,"max":[7.812841415405273,8.199999809265137],"min":[0.3799999952316284,-2.5],"type":"VEC2"},{"bufferView":5,"componentType":5126,"count":6168,"max":[1,0.9959447979927063,1],"min":[-1,-0.9960805177688599,-1],"type":"VEC3"},{"bufferView":6,"componentType":5126,"count":708,"max":[5.868000030517578,8.555347442626953,3.5],"min":[0.3720000088214874,-0.3544512093067169,-0.5],"type":"VEC3"},{"bufferView":7,"componentType":5126,"count":708,"max":[8.555347442626953,8.199999809265137],"min":[-0.3544512093067169,-2.5],"type":"VEC2"},{"bufferView":8,"componentType":5126,"count":708,"max":[1,1,1],"min":[-1,-1,-1],"type":"VEC3"},{"bufferView":9,"componentType":5126,"count":2580,"max":[5.868000030517578,8.501239776611328,3.5],"min":[0.3720000088214874,-0.3544512093067169,-0.5],"type":"VEC3"},{"bufferView":10,"componentType":5126,"count":2580,"max":[7.702143669128418,8.199999809265137],"min":[-0.3544512093067169,-2.5],"type":"VEC2"},{"bufferView":11,"componentType":5126,"count":2580,"max":[1,1,1],"min":[-1,-1,-1],"type":"VEC3"},{"bufferView":12,"componentType":5126,"count":2508,"max":[5.868000030517578,8.501239776611328,3.5],"min":[0.3720000088214874,-0.3544512093067169,-0.5],"type":"VEC3"},{"bufferView":13,"componentType":5126,"count":2508,"max":[7.702143669128418,8.199999809265137],"min":[-0.3544512093067169,-2.5],"type":"VEC2"},{"bufferView":14,"componentType":5126,"count":2508,"max":[1,0.9958848357200623,1],"min":[-1,-0.9957354068756104,-1],"type":"VEC3"},{"bufferView":15,"componentType":5126,"count":2880,"max":[5.989830017089844,8.387999534606934,3.5],"min":[0.3479999899864197,-0.3899851441383362,-0.5],"type":"VEC3"},{"bufferView":16,"componentType":5126,"count":2880,"max":[8.036678314208984,8.088000297546387],"min":[-0.3899851441383362,-2.5],"type":"VEC2"},{"bufferView":17,"componentType":5126,"count":2880,"max":[1,1,1],"min":[-0.9999682903289795,-1,-1],"type":"VEC3"},{"bufferView":18,"componentType":5126,"count":468,"max":[6.3468427658081055,8.387999534606934,3.5],"min":[-0.10684262216091156,-0.3548426330089569,-0.5],"type":"VEC3"},{"bufferView":19,"componentType":5126,"count":468,"max":[8.387999534606934,8.088000297546387],"min":[-0.3548426330089569,-2.5],"type":"VEC2"},{"bufferView":20,"componentType":5126,"count":468,"max":[1,0.9999350905418396,1],"min":[-0.9999570846557617,-1,-1],"type":"VEC3"},{"bufferView":21,"componentType":5126,"count":2880,"max":[5.989830017089844,8.387999534606934,3.5],"min":[0.3479999899864197,-0.3899851441383362,-0.5],"type":"VEC3"},{"bufferView":22,"componentType":5126,"count":2880,"max":[8.036678314208984,8.088000297546387],"min":[-0.3899851441383362,-2.5],"type":"VEC2"},{"bufferView":23,"componentType":5126,"count":2880,"max":[1,1,1],"min":[-0.9999682903289795,-1,-1],"type":"VEC3"},{"bufferView":24,"componentType":5126,"count":708,"max":[5.8437418937683105,8.387999534606934,3.5],"min":[0.3962578773498535,-0.18799999356269836,-0.5],"type":"VEC3"},{"bufferView":25,"componentType":5126,"count":708,"max":[8.387999534606934,8.088000297546387],"min":[-0.18799999356269836,-2.5],"type":"VEC2"},{"bufferView":26,"componentType":5126,"count":708,"max":[1,1,1],"min":[-1,-1,-1],"type":"VEC3"},{"bufferView":27,"componentType":5126,"count":2460,"max":[5.853218078613281,8.387999534606934,3.5],"min":[0.3799999952316284,-0.3544512093067169,-0.5],"type":"VEC3"},{"bufferView":28,"componentType":5126,"count":2460,"max":[8.036678314208984,8.088000297546387],"min":[-0.3544512093067169,-2.5],"type":"VEC2"},{"bufferView":29,"componentType":5126,"count":2460,"max":[1,1,1],"min":[-0.9999682903289795,-1,-1],"type":"VEC3"},{"bufferView":30,"componentType":5126,"count":2580,"max":[5.868000030517578,8.501239776611328,3.5],"min":[0.3720000088214874,-0.3544512093067169,-0.5],"type":"VEC3"},{"bufferView":31,"componentType":5126,"count":2580,"max":[7.702143669128418,8.199999809265137],"min":[-0.3544512093067169,-2.5],"type":"VEC2"},{"bufferView":32,"componentType":5126,"count":2580,"max":[1,1,1],"min":[-1,-1,-1],"type":"VEC3"},{"bufferView":33,"componentType":5126,"count":468,"max":[6.3468427658081055,8.387999534606934,3.5],"min":[-0.10684262216091156,-0.3548426330089569,-0.5],"type":"VEC3"},{"bufferView":34,"componentType":5126,"count":468,"max":[8.387999534606934,8.088000297546387],"min":[-0.3548426330089569,-2.5],"type":"VEC2"},{"bufferView":35,"componentType":5126,"count":468,"max":[1,0.9999350905418396,1],"min":[-0.9999570846557617,-1,-1],"type":"VEC3"},{"bufferView":36,"componentType":5126,"count":708,"max":[5.868000030517578,8.555347442626953,3.5],"min":[0.3720000088214874,-0.3544512093067169,-0.5],"type":"VEC3"},{"bufferView":37,"componentType":5126,"count":708,"max":[8.555347442626953,8.199999809265137],"min":[-0.3544512093067169,-2.5],"type":"VEC2"},{"bufferView":38,"componentType":5126,"count":708,"max":[1,1,1],"min":[-1,-1,-1],"type":"VEC3"},{"bufferView":39,"componentType":5126,"count":708,"max":[5.8437418937683105,8.387999534606934,3.5],"min":[0.3962578773498535,-0.18799999356269836,-0.5],"type":"VEC3"},{"bufferView":40,"componentType":5126,"count":708,"max":[8.387999534606934,8.088000297546387],"min":[-0.18799999356269836,-2.5],"type":"VEC2"},{"bufferView":41,"componentType":5126,"count":708,"max":[1,1,1],"min":[-1,-1,-1],"type":"VEC3"}],"materials":[{"pbrMetallicRoughness":{"metallicFactor":0,"roughnessFactor":0.35},"doubleSided":true,"extensions":{"KHR_materials_transmission":{"transmissionFactor":1},"KHR_materials_volume":{"thicknessFactor":0,"attenuationColor":[1,1,1]}}},{"pbrMetallicRoughness":{"metallicFactor":0,"roughnessFactor":0.35},"doubleSided":true,"extensions":{"KHR_materials_transmission":{"transmissionFactor":1},"KHR_materials_volume":{"thicknessFactor":0,"attenuationColor":[1,1,1]}}},{"pbrMetallicRoughness":{"metallicFactor":0,"roughnessFactor":0.35},"doubleSided":true,"extensions":{"KHR_materials_transmission":{"transmissionFactor":1},"KHR_materials_volume":{"thicknessFactor":0,"attenuationColor":[1,1,1]}}},{"pbrMetallicRoughness":{"metallicFactor":0,"roughnessFactor":0.35},"doubleSided":true,"extensions":{"KHR_materials_transmission":{"transmissionFactor":1},"KHR_materials_volume":{"thicknessFactor":0,"attenuationColor":[1,1,1]}}},{"pbrMetallicRoughness":{"metallicFactor":0,"roughnessFactor":0.35},"doubleSided":true,"extensions":{"KHR_materials_transmission":{"transmissionFactor":1},"KHR_materials_volume":{"thicknessFactor":0,"attenuationColor":[1,1,1]}}},{"pbrMetallicRoughness":{"metallicFactor":0,"roughnessFactor":0.35},"doubleSided":true,"extensions":{"KHR_materials_transmission":{"transmissionFactor":1},"KHR_materials_volume":{"thicknessFactor":0,"attenuationColor":[1,1,1]}}},{"pbrMetallicRoughness":{"metallicFactor":0,"roughnessFactor":0.35},"doubleSided":true,"extensions":{"KHR_materials_transmission":{"transmissionFactor":1},"KHR_materials_volume":{"thicknessFactor":0,"attenuationColor":[1,1,1]}}},{"pbrMetallicRoughness":{"metallicFactor":0,"roughnessFactor":0.35},"doubleSided":true,"extensions":{"KHR_materials_transmission":{"transmissionFactor":1},"KHR_materials_volume":{"thicknessFactor":0,"attenuationColor":[1,1,1]}}},{"pbrMetallicRoughness":{"metallicFactor":0,"roughnessFactor":0.35},"doubleSided":true,"extensions":{"KHR_materials_transmission":{"transmissionFactor":1},"KHR_materials_volume":{"thicknessFactor":0,"attenuationColor":[1,1,1]}}},{"pbrMetallicRoughness":{"metallicFactor":0,"roughnessFactor":0.35},"doubleSided":true,"extensions":{"KHR_materials_transmission":{"transmissionFactor":1},"KHR_materials_volume":{"thicknessFactor":0,"attenuationColor":[1,1,1]}}},{"pbrMetallicRoughness":{"metallicFactor":0,"roughnessFactor":0.35},"doubleSided":true,"extensions":{"KHR_materials_transmission":{"transmissionFactor":1},"KHR_materials_volume":{"thicknessFactor":0,"attenuationColor":[1,1,1]}}},{"pbrMetallicRoughness":{"metallicFactor":0,"roughnessFactor":0.35},"doubleSided":true,"extensions":{"KHR_materials_transmission":{"transmissionFactor":1},"KHR_materials_volume":{"thicknessFactor":0,"attenuationColor":[1,1,1]}}},{"pbrMetallicRoughness":{"metallicFactor":0,"roughnessFactor":0.35},"doubleSided":true,"extensions":{"KHR_materials_transmission":{"transmissionFactor":1},"KHR_materials_volume":{"thicknessFactor":0,"attenuationColor":[1,1,1]}}},{"pbrMetallicRoughness":{"metallicFactor":0,"roughnessFactor":0.35},"doubleSided":true,"extensions":{"KHR_materials_transmission":{"transmissionFactor":1},"KHR_materials_volume":{"thicknessFactor":0,"attenuationColor":[1,1,1]}}}],"meshes":[{"primitives":[{"mode":4,"attributes":{"POSITION":0,"TEXCOORD_0":1,"NORMAL":2},"material":0}]},{"primitives":[{"mode":4,"attributes":{"POSITION":3,"TEXCOORD_0":4,"NORMAL":5},"material":1}]},{"primitives":[{"mode":4,"attributes":{"POSITION":6,"TEXCOORD_0":7,"NORMAL":8},"material":2}]},{"primitives":[{"mode":4,"attributes":{"POSITION":9,"TEXCOORD_0":10,"NORMAL":11},"material":3}]},{"primitives":[{"mode":4,"attributes":{"POSITION":12,"TEXCOORD_0":13,"NORMAL":14},"material":4}]},{"primitives":[{"mode":4,"attributes":{"POSITION":15,"TEXCOORD_0":16,"NORMAL":17},"material":5}]},{"primitives":[{"mode":4,"attributes":{"POSITION":18,"TEXCOORD_0":19,"NORMAL":20},"material":6}]},{"primitives":[{"mode":4,"attributes":{"POSITION":21,"TEXCOORD_0":22,"NORMAL":23},"material":7}]},{"primitives":[{"mode":4,"attributes":{"POSITION":24,"TEXCOORD_0":25,"NORMAL":26},"material":8}]},{"primitives":[{"mode":4,"attributes":{"POSITION":27,"TEXCOORD_0":28,"NORMAL":29},"material":9}]},{"primitives":[{"mode":4,"attributes":{"POSITION":30,"TEXCOORD_0":31,"NORMAL":32},"material":10}]},{"primitives":[{"mode":4,"attributes":{"POSITION":33,"TEXCOORD_0":34,"NORMAL":35},"material":11}]},{"primitives":[{"mode":4,"attributes":{"POSITION":36,"TEXCOORD_0":37,"NORMAL":38},"material":12}]},{"primitives":[{"mode":4,"attributes":{"POSITION":39,"TEXCOORD_0":40,"NORMAL":41},"material":13}]}],"extensionsUsed":["KHR_materials_transmission","KHR_materials_volume"]}